<svg xmlns="http://www.w3.org/2000/svg" width="111.848" height="111.848" viewBox="0 0 111.848 111.848">
  <g id="Grupo_401" data-name="Grupo 401" transform="translate(-460.045 -1311.306)">
    <circle id="Elipse_11" data-name="Elipse 11" cx="55.924" cy="55.924" r="55.924" transform="translate(460.045 1311.306)" fill="#e6007e"/>
    <g id="Grupo_394" data-name="Grupo 394">
      <path id="Trazado_226" data-name="Trazado 226" d="M2722.847,1315.936c-.353.546-.753,1.164-1.239,1.891-.408.609-.774,1.144-1.1,1.619-1.17,1.709-1.814,2.65-1.825,3.36s.568,1.532,1.718,3.194c.349.5.744,1.074,1.189,1.738.566.843,1.025,1.565,1.4,2.145,1.779,2.795,1.779,2.795,4.656,2.795.3,0,.621,0,.974,0,.428,0,.9-.006,1.421-.006l.656,0h.03c1.6.008,2.4.012,2.9.59s.384,1.345.163,2.88c-.052.366-.1.728-.155,1.09-.075.532-.15,1.064-.228,1.6l-.012.081c-.336,2.3-.522,3.565-1.849,3.565a7.361,7.361,0,0,1-2.678-.973l-.24-.113a19.745,19.745,0,0,0-8.5-1.959,23.556,23.556,0,0,0-9.777,2.307,3.644,3.644,0,0,1-1.49.423c-1.236,0-1.618-1.232-1.781-1.758a30.349,30.349,0,0,0-1.872-4.531c-2.611-5.234-5.87-8.165-10.255-9.225a10.852,10.852,0,0,0-2.13-.372.706.706,0,0,0-.479.113c-.307.311-.288,1.753-.278,2.528.013.993.063,1.123.9,1.182a9.049,9.049,0,0,1,5.993,3.058,21.272,21.272,0,0,1,4.153,7.219c.391,1.025.739,2.077,1.076,3.1.358,1.084.729,2.2,1.147,3.277s1.134,1.721,1.909,1.721a2.14,2.14,0,0,0,1.578-.882c2-2.35,4.66-3.66,8.386-4.121a26.5,26.5,0,0,1,3.268-.217c5.531,0,9.354,2.242,11.687,6.853a1.609,1.609,0,0,0,1.529.95,2.587,2.587,0,0,0,.355-.026c.578-.081,1.371-.356,1.583-1.806l.332-2.275c.733-5.019,1.491-10.208,2.149-15.321a2.681,2.681,0,0,0-.31-2.086,2.914,2.914,0,0,0-2.176-.629c-1.282-.019-2.47-.028-3.632-.028-1.2,0-2.382.01-3.5.031h-.077a2.939,2.939,0,0,1-2.564-1.388l-.041-.056c-3.13-4.356-3.139-4.69-.23-8.937,1-1.461,4.752-1.847,6.595-1.847,1.405,0,3.246.174,4.043,1.005a4.718,4.718,0,0,1,.466.6c.056.08.111.16.169.237q.672.9,1.34,1.8c1.068,1.442,2.174,2.933,3.3,4.361a7.063,7.063,0,0,1,1.461,3.475q.414,2.756.827,5.512c1.153,7.7,2.346,15.67,3.61,23.488a3.165,3.165,0,0,1-1.538,3.531,50.865,50.865,0,0,1-12.741,6.366,68.6,68.6,0,0,1-22.606,3.624,95.549,95.549,0,0,1-15.492-1.333l-.624-.1a12.189,12.189,0,0,0-1.6-.213.6.6,0,0,0-.211.023,5.286,5.286,0,0,0-.323,1.266c-.077.4-.174.9-.308,1.479-.125.545-.057.657-.054.662s.1.129.716.244a97.133,97.133,0,0,0,17.979,1.761,76.47,76.47,0,0,0,17.581-2,53.42,53.42,0,0,0,21.6-10.089,3.754,3.754,0,0,0,1.559-4.031q-.263-1.57-.527-3.142c-1.217-7.229-2.475-14.705-3.311-22.113a27.02,27.02,0,0,0-6.325-15.114c-.986-1.166-1.684-2.062-2.244-2.782-1.725-2.219-1.725-2.219-4.113-2.219l-.786,0c-.342,0-.718,0-1.132,0-.618,0-1.2-.005-1.775-.015-.45.007-.867.01-1.256.01-.674,0-1.258-.008-1.773-.015-.4-.006-.748-.011-1.065-.011v-.341h0v.341C2724.781,1312.949,2724.745,1313.005,2722.847,1315.936Z" transform="translate(-2206.707 22.523)"/>
      <path id="Trazado_227" data-name="Trazado 227" d="M2723.514,1356.592a2.6,2.6,0,0,1,1.333.5,6.3,6.3,0,0,0,1.881.974c.27,0,.744-.7,1.4-1.673.046-.069.086-.136.127-.2a3.351,3.351,0,0,1,.36-.515.836.836,0,0,0,.2-.3,1.227,1.227,0,0,0-.41-.349c-2.074-1.336-4.234-2.776-6.6-4.4a2.275,2.275,0,0,0-1.279-.464,2.351,2.351,0,0,0-1.329.491c-2.011,1.392-4.119,2.8-6.444,4.3-.57.368-.57.368-.252.875l.082.13c.8,1.283,1.289,2.058,1.654,2.058a7.732,7.732,0,0,0,2.356-1.154,4.426,4.426,0,0,1,.6-.276c.138-.056.308-.124.527-.218l.951-.408v5.716a8.958,8.958,0,0,0,.176,2.608c.051.108.121.256,1.071.256.415,0,.926-.026,1.574-.06l.1-.006c.744-.038.742-.158.732-.662-.016-.926-.01-1.864,0-2.772,0-.8.01-1.634,0-2.447a2.313,2.313,0,0,1,.414-1.686A1.071,1.071,0,0,1,2723.514,1356.592Z" transform="translate(-2206.707 22.523)"/>
    </g>
  </g>
</svg>
